<svg version="1.2" xmlns="http://www.w3.org/2000/svg" viewBox="0 0 512 512" width="512" height="512"><style>.a{fill:#007590}</style><path fill-rule="evenodd" class="a" d="m64 64c0-35.3 28.7-64 64-64h165.5c17 0 33.3 6.7 45.3 18.7l90.5 90.5c12 12 18.7 28.3 18.7 45.3v293.5c0 35.3-28.7 64-64 64h-256c-35.3 0-64-28.7-64-64zm320 400c8.8 0 16-7.2 16-16v-288h-80c-17.7 0-32-14.3-32-32v-80h-160c-8.8 0-16 7.2-16 16v384c0 8.8 7.2 16 16 16zm-163.5-271c0-11.6 9.5-21 21.2-21h28.1c11.7 0 21.2 9.4 21.2 21v28c0 11.6-9.5 21-21.2 21h-3.5v17.4h66.9c13.6 0 24.7 11 24.7 24.5v14h3.5c11.6 0 21.1 9.4 21.1 21v28c0 11.6-9.5 21-21.1 21h-28.2c-11.7 0-21.1-9.4-21.1-21v-28c0-11.6 9.4-21 21.1-21h3.5v-14c0-1.9-1.6-3.5-3.5-3.5h-66.9v17.5h3.5c11.7 0 21.2 9.4 21.2 21v28c0 11.6-9.5 21-21.2 21h-28.1c-11.7 0-21.2-9.4-21.2-21v-28c0-11.6 9.5-21 21.2-21h3.5v-17.5h-66.9c-1.9 0-3.5 1.6-3.5 3.5v14h3.5c11.7 0 21.1 9.4 21.1 21v28c0 11.6-9.4 21-21.1 21h-28.2c-11.6 0-21.1-9.4-21.1-21v-28c0-11.6 9.5-21 21.1-21h3.5v-14c0-13.5 11.1-24.5 24.7-24.5h66.9v-17.4h-3.5c-11.7 0-21.2-9.4-21.2-21z"/></svg>