<svg version="1.2" xmlns="http://www.w3.org/2000/svg" viewBox="0 0 690 690" width="690" height="690"><style>.a{fill:#007590}</style><path fill-rule="evenodd" class="a" d="m120 502.5c0-37.3 30.2-67.5 67.5-67.5 37.3 0 67.5 30.2 67.5 67.5 0 37.3-30.2 67.5-67.5 67.5-37.3 0-67.5-30.2-67.5-67.5zm397.5 95.5c-8 8-20.9 8-28.9 0-8-7.9-8-20.9 0-28.8l46.8-46.8h-236.2c-11.3 0-20.4-9.1-20.4-20.4 0-11.3 9.1-20.4 20.4-20.4h236.2l-46.8-46.8c-8-7.9-8-20.9 0-28.8 8-8 20.9-8 28.9 0l81.5 81.5c8 8 8 20.9 0 28.9 0 0.1-81.5 81.6-81.5 81.6zm-234.5-425.5c8 8 8 20.9 0 28.9-7.9 8-20.9 8-28.8 0l-46.8-46.8v236.2c0 11.3-9.1 20.4-20.4 20.4-11.3 0-20.4-9.1-20.4-20.4v-236.2l-46.8 46.8c-7.9 8-20.9 8-28.8 0-8-8-8-20.9 0-28.9l81.5-81.5c8-8 20.9-8 28.9 0 0.1 0 81.6 81.5 81.6 81.5z"/></svg>